<?xml version="1.0"?>
<svg xmlns="http://www.w3.org/2000/svg" xmlns:xlink="http://www.w3.org/1999/xlink" xmlns:svgjs="http://svgjs.com/svgjs" version="1.1" width="512" height="512" x="0" y="0" viewBox="0 0 512 512" style="enable-background:new 0 0 512 512" xml:space="preserve" class=""><g>
<path xmlns="http://www.w3.org/2000/svg" style="" d="M256,512L256,512c139.695-52.258,232.276-185.739,232.276-334.887V86.716  c-47.892,0-86.716-38.824-86.716-86.716H256H110.44c0,47.892-38.824,86.716-86.716,86.716v90.396  C23.724,326.261,116.305,459.742,256,512L256,512z" fill="#1e239e" data-original="#ffdb0c" class=""/>
<path xmlns="http://www.w3.org/2000/svg" style="" d="M256,512L256,512c139.695-52.258,232.276-185.739,232.276-334.887V86.716  c-47.892,0-86.716-38.824-86.716-86.716H256C256,0,256,398,256,512L256,512z" fill="#2025a8" data-original="#fbbf00" class=""/>
<polygon xmlns="http://www.w3.org/2000/svg" style="" points="223.642,346.281 146.64,269.28 189.066,226.853 223.642,261.429 322.934,162.137   365.36,204.563 " fill="#f1f1f2" data-original="#f1f1f2"/>
<polygon xmlns="http://www.w3.org/2000/svg" style="" points="256,313.923 256,229.071 322.934,162.137 365.36,204.563 " fill="#e6e6e6" data-original="#e6e6e6"/>
<g xmlns="http://www.w3.org/2000/svg">
</g>
<g xmlns="http://www.w3.org/2000/svg">
</g>
<g xmlns="http://www.w3.org/2000/svg">
</g>
<g xmlns="http://www.w3.org/2000/svg">
</g>
<g xmlns="http://www.w3.org/2000/svg">
</g>
<g xmlns="http://www.w3.org/2000/svg">
</g>
<g xmlns="http://www.w3.org/2000/svg">
</g>
<g xmlns="http://www.w3.org/2000/svg">
</g>
<g xmlns="http://www.w3.org/2000/svg">
</g>
<g xmlns="http://www.w3.org/2000/svg">
</g>
<g xmlns="http://www.w3.org/2000/svg">
</g>
<g xmlns="http://www.w3.org/2000/svg">
</g>
<g xmlns="http://www.w3.org/2000/svg">
</g>
<g xmlns="http://www.w3.org/2000/svg">
</g>
<g xmlns="http://www.w3.org/2000/svg">
</g>
</g></svg>
